<svg xmlns="http://www.w3.org/2000/svg" viewBox="0 0 576.0 72" width="576.0" height="72" role="img" aria-label="CoAgentia">
<rect x="8" y="8" width="28.0" height="28.0" fill="#E8763A"/>
<rect x="36.0" y="36.0" width="28.0" height="28.0" fill="#E8763A"/>
<rect x="100.0" y="8" width="28.0" height="28.0" fill="#E8763A"/>
<rect x="72.0" y="36.0" width="28.0" height="28.0" fill="#E8763A"/>
<rect x="152.0" y="8" width="8" height="8" fill="#E9E7DC"/>
<rect x="160.0" y="8" width="8" height="8" fill="#E9E7DC"/>
<rect x="168.0" y="8" width="8" height="8" fill="#E9E7DC"/>
<rect x="144.0" y="16" width="8" height="8" fill="#E9E7DC"/>
<rect x="176.0" y="16" width="8" height="8" fill="#E9E7DC"/>
<rect x="144.0" y="24" width="8" height="8" fill="#E9E7DC"/>
<rect x="144.0" y="32" width="8" height="8" fill="#E9E7DC"/>
<rect x="144.0" y="40" width="8" height="8" fill="#E9E7DC"/>
<rect x="144.0" y="48" width="8" height="8" fill="#E9E7DC"/>
<rect x="176.0" y="48" width="8" height="8" fill="#E9E7DC"/>
<rect x="152.0" y="56" width="8" height="8" fill="#E9E7DC"/>
<rect x="160.0" y="56" width="8" height="8" fill="#E9E7DC"/>
<rect x="168.0" y="56" width="8" height="8" fill="#E9E7DC"/>
<rect x="200.0" y="8" width="8" height="8" fill="#E9E7DC"/>
<rect x="208.0" y="8" width="8" height="8" fill="#E9E7DC"/>
<rect x="216.0" y="8" width="8" height="8" fill="#E9E7DC"/>
<rect x="192.0" y="16" width="8" height="8" fill="#E9E7DC"/>
<rect x="224.0" y="16" width="8" height="8" fill="#E9E7DC"/>
<rect x="192.0" y="24" width="8" height="8" fill="#E9E7DC"/>
<rect x="224.0" y="24" width="8" height="8" fill="#E9E7DC"/>
<rect x="192.0" y="32" width="8" height="8" fill="#E9E7DC"/>
<rect x="224.0" y="32" width="8" height="8" fill="#E9E7DC"/>
<rect x="192.0" y="40" width="8" height="8" fill="#E9E7DC"/>
<rect x="224.0" y="40" width="8" height="8" fill="#E9E7DC"/>
<rect x="192.0" y="48" width="8" height="8" fill="#E9E7DC"/>
<rect x="224.0" y="48" width="8" height="8" fill="#E9E7DC"/>
<rect x="200.0" y="56" width="8" height="8" fill="#E9E7DC"/>
<rect x="208.0" y="56" width="8" height="8" fill="#E9E7DC"/>
<rect x="216.0" y="56" width="8" height="8" fill="#E9E7DC"/>
<rect x="248.0" y="8" width="8" height="8" fill="#E9E7DC"/>
<rect x="256.0" y="8" width="8" height="8" fill="#E9E7DC"/>
<rect x="264.0" y="8" width="8" height="8" fill="#E9E7DC"/>
<rect x="240.0" y="16" width="8" height="8" fill="#E9E7DC"/>
<rect x="272.0" y="16" width="8" height="8" fill="#E9E7DC"/>
<rect x="240.0" y="24" width="8" height="8" fill="#E9E7DC"/>
<rect x="272.0" y="24" width="8" height="8" fill="#E9E7DC"/>
<rect x="240.0" y="32" width="8" height="8" fill="#E9E7DC"/>
<rect x="248.0" y="32" width="8" height="8" fill="#E9E7DC"/>
<rect x="256.0" y="32" width="8" height="8" fill="#E9E7DC"/>
<rect x="264.0" y="32" width="8" height="8" fill="#E9E7DC"/>
<rect x="272.0" y="32" width="8" height="8" fill="#E9E7DC"/>
<rect x="240.0" y="40" width="8" height="8" fill="#E9E7DC"/>
<rect x="272.0" y="40" width="8" height="8" fill="#E9E7DC"/>
<rect x="240.0" y="48" width="8" height="8" fill="#E9E7DC"/>
<rect x="272.0" y="48" width="8" height="8" fill="#E9E7DC"/>
<rect x="240.0" y="56" width="8" height="8" fill="#E9E7DC"/>
<rect x="272.0" y="56" width="8" height="8" fill="#E9E7DC"/>
<rect x="296.0" y="8" width="8" height="8" fill="#E9E7DC"/>
<rect x="304.0" y="8" width="8" height="8" fill="#E9E7DC"/>
<rect x="312.0" y="8" width="8" height="8" fill="#E9E7DC"/>
<rect x="288.0" y="16" width="8" height="8" fill="#E9E7DC"/>
<rect x="320.0" y="16" width="8" height="8" fill="#E9E7DC"/>
<rect x="288.0" y="24" width="8" height="8" fill="#E9E7DC"/>
<rect x="288.0" y="32" width="8" height="8" fill="#E9E7DC"/>
<rect x="304.0" y="32" width="8" height="8" fill="#E9E7DC"/>
<rect x="312.0" y="32" width="8" height="8" fill="#E9E7DC"/>
<rect x="320.0" y="32" width="8" height="8" fill="#E9E7DC"/>
<rect x="288.0" y="40" width="8" height="8" fill="#E9E7DC"/>
<rect x="320.0" y="40" width="8" height="8" fill="#E9E7DC"/>
<rect x="288.0" y="48" width="8" height="8" fill="#E9E7DC"/>
<rect x="320.0" y="48" width="8" height="8" fill="#E9E7DC"/>
<rect x="296.0" y="56" width="8" height="8" fill="#E9E7DC"/>
<rect x="304.0" y="56" width="8" height="8" fill="#E9E7DC"/>
<rect x="312.0" y="56" width="8" height="8" fill="#E9E7DC"/>
<rect x="336.0" y="8" width="8" height="8" fill="#E9E7DC"/>
<rect x="344.0" y="8" width="8" height="8" fill="#E9E7DC"/>
<rect x="352.0" y="8" width="8" height="8" fill="#E9E7DC"/>
<rect x="360.0" y="8" width="8" height="8" fill="#E9E7DC"/>
<rect x="368.0" y="8" width="8" height="8" fill="#E9E7DC"/>
<rect x="336.0" y="16" width="8" height="8" fill="#E9E7DC"/>
<rect x="336.0" y="24" width="8" height="8" fill="#E9E7DC"/>
<rect x="336.0" y="32" width="8" height="8" fill="#E9E7DC"/>
<rect x="344.0" y="32" width="8" height="8" fill="#E9E7DC"/>
<rect x="352.0" y="32" width="8" height="8" fill="#E9E7DC"/>
<rect x="360.0" y="32" width="8" height="8" fill="#E9E7DC"/>
<rect x="336.0" y="40" width="8" height="8" fill="#E9E7DC"/>
<rect x="336.0" y="48" width="8" height="8" fill="#E9E7DC"/>
<rect x="336.0" y="56" width="8" height="8" fill="#E9E7DC"/>
<rect x="344.0" y="56" width="8" height="8" fill="#E9E7DC"/>
<rect x="352.0" y="56" width="8" height="8" fill="#E9E7DC"/>
<rect x="360.0" y="56" width="8" height="8" fill="#E9E7DC"/>
<rect x="368.0" y="56" width="8" height="8" fill="#E9E7DC"/>
<rect x="384.0" y="8" width="8" height="8" fill="#E9E7DC"/>
<rect x="416.0" y="8" width="8" height="8" fill="#E9E7DC"/>
<rect x="384.0" y="16" width="8" height="8" fill="#E9E7DC"/>
<rect x="392.0" y="16" width="8" height="8" fill="#E9E7DC"/>
<rect x="416.0" y="16" width="8" height="8" fill="#E9E7DC"/>
<rect x="384.0" y="24" width="8" height="8" fill="#E9E7DC"/>
<rect x="392.0" y="24" width="8" height="8" fill="#E9E7DC"/>
<rect x="416.0" y="24" width="8" height="8" fill="#E9E7DC"/>
<rect x="384.0" y="32" width="8" height="8" fill="#E9E7DC"/>
<rect x="400.0" y="32" width="8" height="8" fill="#E9E7DC"/>
<rect x="416.0" y="32" width="8" height="8" fill="#E9E7DC"/>
<rect x="384.0" y="40" width="8" height="8" fill="#E9E7DC"/>
<rect x="408.0" y="40" width="8" height="8" fill="#E9E7DC"/>
<rect x="416.0" y="40" width="8" height="8" fill="#E9E7DC"/>
<rect x="384.0" y="48" width="8" height="8" fill="#E9E7DC"/>
<rect x="408.0" y="48" width="8" height="8" fill="#E9E7DC"/>
<rect x="416.0" y="48" width="8" height="8" fill="#E9E7DC"/>
<rect x="384.0" y="56" width="8" height="8" fill="#E9E7DC"/>
<rect x="416.0" y="56" width="8" height="8" fill="#E9E7DC"/>
<rect x="432.0" y="8" width="8" height="8" fill="#E9E7DC"/>
<rect x="440.0" y="8" width="8" height="8" fill="#E9E7DC"/>
<rect x="448.0" y="8" width="8" height="8" fill="#E9E7DC"/>
<rect x="456.0" y="8" width="8" height="8" fill="#E9E7DC"/>
<rect x="464.0" y="8" width="8" height="8" fill="#E9E7DC"/>
<rect x="448.0" y="16" width="8" height="8" fill="#E9E7DC"/>
<rect x="448.0" y="24" width="8" height="8" fill="#E9E7DC"/>
<rect x="448.0" y="32" width="8" height="8" fill="#E9E7DC"/>
<rect x="448.0" y="40" width="8" height="8" fill="#E9E7DC"/>
<rect x="448.0" y="48" width="8" height="8" fill="#E9E7DC"/>
<rect x="448.0" y="56" width="8" height="8" fill="#E9E7DC"/>
<rect x="480.0" y="8" width="8" height="8" fill="#E9E7DC"/>
<rect x="488.0" y="8" width="8" height="8" fill="#E9E7DC"/>
<rect x="496.0" y="8" width="8" height="8" fill="#E9E7DC"/>
<rect x="504.0" y="8" width="8" height="8" fill="#E9E7DC"/>
<rect x="512.0" y="8" width="8" height="8" fill="#E9E7DC"/>
<rect x="496.0" y="16" width="8" height="8" fill="#E9E7DC"/>
<rect x="496.0" y="24" width="8" height="8" fill="#E9E7DC"/>
<rect x="496.0" y="32" width="8" height="8" fill="#E9E7DC"/>
<rect x="496.0" y="40" width="8" height="8" fill="#E9E7DC"/>
<rect x="496.0" y="48" width="8" height="8" fill="#E9E7DC"/>
<rect x="480.0" y="56" width="8" height="8" fill="#E9E7DC"/>
<rect x="488.0" y="56" width="8" height="8" fill="#E9E7DC"/>
<rect x="496.0" y="56" width="8" height="8" fill="#E9E7DC"/>
<rect x="504.0" y="56" width="8" height="8" fill="#E9E7DC"/>
<rect x="512.0" y="56" width="8" height="8" fill="#E9E7DC"/>
<rect x="536.0" y="8" width="8" height="8" fill="#E9E7DC"/>
<rect x="544.0" y="8" width="8" height="8" fill="#E9E7DC"/>
<rect x="552.0" y="8" width="8" height="8" fill="#E9E7DC"/>
<rect x="528.0" y="16" width="8" height="8" fill="#E9E7DC"/>
<rect x="560.0" y="16" width="8" height="8" fill="#E9E7DC"/>
<rect x="528.0" y="24" width="8" height="8" fill="#E9E7DC"/>
<rect x="560.0" y="24" width="8" height="8" fill="#E9E7DC"/>
<rect x="528.0" y="32" width="8" height="8" fill="#E9E7DC"/>
<rect x="536.0" y="32" width="8" height="8" fill="#E9E7DC"/>
<rect x="544.0" y="32" width="8" height="8" fill="#E9E7DC"/>
<rect x="552.0" y="32" width="8" height="8" fill="#E9E7DC"/>
<rect x="560.0" y="32" width="8" height="8" fill="#E9E7DC"/>
<rect x="528.0" y="40" width="8" height="8" fill="#E9E7DC"/>
<rect x="560.0" y="40" width="8" height="8" fill="#E9E7DC"/>
<rect x="528.0" y="48" width="8" height="8" fill="#E9E7DC"/>
<rect x="560.0" y="48" width="8" height="8" fill="#E9E7DC"/>
<rect x="528.0" y="56" width="8" height="8" fill="#E9E7DC"/>
<rect x="560.0" y="56" width="8" height="8" fill="#E9E7DC"/>
</svg>
